<svg width="598" height="234" viewBox="0 0 598 234" fill="none" xmlns="http://www.w3.org/2000/svg">
<path d="M43.632 90.08C54.768 90.08 63.312 91.664 69.264 94.832C75.216 97.904 79.344 102.8 81.648 109.52C84.048 116.24 85.248 125.552 85.248 137.456C85.248 149.84 84.096 159.632 81.792 166.832C79.488 174.032 75.312 179.36 69.264 182.816C63.312 186.272 54.768 188 43.632 188H10.656V90.08H43.632ZM43.632 170.72C49.872 170.72 54.48 169.472 57.456 166.976C60.528 164.48 62.496 160.928 63.36 156.32C64.32 151.616 64.8 144.944 64.8 136.304C64.8 128.624 64.32 122.816 63.36 118.88C62.4 114.944 60.432 112.064 57.456 110.24C54.48 108.32 49.872 107.36 43.632 107.36H30.528V170.72H43.632ZM100.756 116H119.908V123.632C128.164 118.832 135.844 115.712 142.948 114.272V133.712C135.748 135.152 129.076 136.832 122.932 138.752L120.052 139.76V188H100.756V116ZM182.558 189.728C171.326 189.728 163.214 186.896 158.222 181.232C153.23 175.568 150.734 166.4 150.734 153.728C150.734 140.48 153.326 130.592 158.51 124.064C163.79 117.536 171.95 114.272 182.99 114.272C193.166 114.272 200.846 117.008 206.03 122.48C211.31 127.856 213.95 135.968 213.95 146.816L212.51 160.208H170.174C170.366 163.568 170.942 166.16 171.902 167.984C172.958 169.712 174.59 170.96 176.798 171.728C179.102 172.4 182.27 172.736 186.302 172.736C189.47 172.736 193.262 172.64 197.678 172.448C202.094 172.256 205.31 172.064 207.326 171.872L211.358 171.44L211.646 185.696C200.798 188.384 191.102 189.728 182.558 189.728ZM194.942 145.52C194.942 139.76 194.03 135.776 192.206 133.568C190.478 131.264 187.358 130.112 182.846 130.112C178.238 130.112 174.974 131.312 173.054 133.712C171.134 136.016 170.126 139.952 170.03 145.52H194.942ZM245.309 189.728C230.429 189.728 222.989 181.856 222.989 166.112C222.989 158.624 224.957 153.248 228.893 149.984C232.925 146.624 239.357 144.656 248.189 144.08L263.597 142.928V138.464C263.597 135.584 262.925 133.568 261.581 132.416C260.333 131.264 258.173 130.688 255.101 130.688C251.933 130.688 247.565 130.832 241.997 131.12C236.429 131.312 231.773 131.552 228.029 131.84L227.453 118.448C237.821 115.664 247.613 114.272 256.828 114.272C266.045 114.272 272.669 116.192 276.701 120.032C280.829 123.872 282.893 130.016 282.893 138.464V168.416C283.085 170.816 283.469 172.448 284.045 173.312C284.717 174.176 285.917 174.8 287.645 175.184L287.069 189.728C282.077 189.728 278.093 189.392 275.117 188.72C272.237 188.048 269.357 186.704 266.477 184.688C259.469 188.048 252.413 189.728 245.309 189.728ZM249.485 174.032C253.133 174.032 257.117 173.456 261.437 172.304L263.597 171.728V156.32L250.493 157.472C245.117 157.952 242.429 160.832 242.429 166.112C242.429 171.392 244.781 174.032 249.485 174.032ZM301.287 116H320.439V120.032C323.991 118.016 327.063 116.576 329.655 115.712C332.343 114.752 335.127 114.272 338.007 114.272C341.367 114.272 344.583 114.848 347.655 116C350.823 117.056 353.415 118.736 355.431 121.04C359.943 118.736 364.167 117.056 368.103 116C372.135 114.848 376.215 114.272 380.343 114.272C389.271 114.272 395.607 117.008 399.351 122.48C403.095 127.952 404.967 136.784 404.967 148.976V188H385.671V149.552C385.671 143.12 384.951 138.512 383.511 135.728C382.071 132.944 379.383 131.552 375.447 131.552C372.663 131.552 368.967 132.224 364.359 133.568L362.199 134.288C362.583 140.72 362.775 146.192 362.775 150.704V188H343.479V150.992C343.479 145.808 343.191 141.872 342.615 139.184C342.135 136.496 341.127 134.576 339.591 133.424C338.151 132.176 335.943 131.552 332.967 131.552C329.895 131.552 326.343 132.224 322.311 133.568L320.583 134.144V188H301.287V116ZM447.284 189.728C440.948 189.728 433.22 188.864 424.1 187.136L419.492 186.272L420.068 170.144C431.684 171.68 440.132 172.448 445.412 172.448C448.964 172.448 451.748 172.064 453.764 171.296C455.876 170.528 456.932 169.088 456.932 166.976C456.932 165.056 455.924 163.664 453.908 162.8C451.988 161.936 448.724 161.12 444.116 160.352C442.388 160.16 441.188 159.968 440.516 159.776C435.716 158.912 431.78 157.856 428.708 156.608C425.636 155.264 423.14 153.2 421.22 150.416C419.3 147.536 418.34 143.552 418.34 138.464C418.34 130.304 420.836 124.256 425.828 120.32C430.82 116.384 437.684 114.416 446.42 114.416C451.604 114.416 459.236 115.328 469.316 117.152L474.068 118.016L473.78 134C462.164 132.464 453.572 131.696 448.004 131.696C444.74 131.696 442.148 132.032 440.228 132.704C438.404 133.376 437.492 134.672 437.492 136.592C437.492 138.608 438.452 140.048 440.372 140.912C442.292 141.68 445.412 142.448 449.732 143.216L454.772 144.08C462.452 145.616 467.924 147.92 471.188 150.992C474.452 153.968 476.084 158.816 476.084 165.536C476.084 173.792 473.732 179.888 469.028 183.824C464.324 187.76 457.076 189.728 447.284 189.728Z" fill="#2D9CDB"/>
<path d="M544.832 73.4402C544.989 73.0896 544.932 72.6801 544.684 72.3864C544.436 72.0928 544.042 71.967 543.67 72.0628L490.241 85.8216C489.844 85.9239 489.55 86.2581 489.498 86.6649C489.447 87.0717 489.649 87.4686 490.009 87.6662L512.141 99.8395L520.412 123.706C520.546 124.094 520.903 124.36 521.313 124.378C521.722 124.396 522.101 124.162 522.269 123.788L544.832 73.4402Z" fill="#2D9CDB" stroke="#2D9CDB" stroke-width="2" stroke-linecap="round" stroke-linejoin="round"/>
</svg>
